PathFileType	4	(X/Y/Z)	6_1_15_p1_0-217.trc
DataRate	CameraRate	NumFrames	NumMarkers	Units	OrigDataRate	OrigDataStartFrame	OrigNumFrames
60.0	60.0	5	27	m	60.0	190	218
Frame#	Time	RHip			RKnee			RAnkle			RBigToe			RSmallToe			RHeel			LHip			LKnee			LAnkle			LBigToe			LSmallToe			LHeel			Neck			Head			Nose			RShoulder			RElbow			RWrist			RThumb			RIndex			RPinky			LShoulder			LElbow			LWrist			LThumb			LIndex			LPinky			
		X1	Y1	Z1	X2	Y2	Z2	X3	Y3	Z3	X4	Y4	Z4	X5	Y5	Z5	X6	Y6	Z6	X7	Y7	Z7	X8	Y8	Z8	X9	Y9	Z9	X10	Y10	Z10	X11	Y11	Z11	X12	Y12	Z12	X13	Y13	Z13	X14	Y14	Z14	X15	Y15	Z15	X16	Y16	Z16	X17	Y17	Z17	X18	Y18	Z18	X19	Y19	Z19	X20	Y20	Z20	X21	Y21	Z21	X22	Y22	Z22	X23	Y23	Z23	X24	Y24	Z24	X25	Y25	Z25	X26	Y26	Z26	X27	Y27	Z27	
190	3.1666666666666665	0.2359521870305952	0.4409710715556237	0.7410180544701729	0.29232466498573584	0.45730717959823874	1.1196403291931287	0.28291125901379105	0.5663890463762667	1.5280932057521934	0.2733080997230377	0.35334947110886356	1.5116039887122992	0.328339708443641	0.40739704266630566	1.5289859965672592	0.2635252759067584	0.6005944548905413	1.5831170234645873	0.04134658946254773	0.4286737422437461	0.7543084520758121	0.0564302440038153	0.44536590494380407	1.1409849275539676	0.08370919143270765	0.5200225911138803	1.5187543286540734	0.08610600880539955	0.3792718139266858	1.5379556056925536	0.03948819797110432	0.3727769548818914	1.5087751598434487	0.10241754287047508	0.5915024100298664	1.5828384895180332	0.10021278331954721	0.4285550535603787	0.21813530763600872	0.12410336966239051	0.3190946778985153	-0.03958801037101193	0.1213860161351415	0.2589417789157115	0.09764941973477591	0.25364946948202494	0.39912466297530147	0.2682773021661834	0.33963421886796963	0.43630498919963745	0.49013674912800853	0.2643826675776366	0.22470096086117852	0.5803883104597807	0.1943853783756249	0.1283347027693806	0.6263889235979008	0.20250066832247698	0.1106594782557249	0.6383129795601722	0.22125940936535024	0.1507700573526445	0.6582236416056423	-0.025178469406816714	0.4478803324512283	0.2807216898711717	-0.08066858679274992	0.41400776975933673	0.5109200877493394	0.032049872593487495	0.2379320632244329	0.6348149522917649	0.11401406409771025	0.15660949654458242	0.6591036581009406	0.10757784038258258	0.1493398087654654	0.6747198303953712	0.06058628175457043	0.17733224229865216	0.7153227358653357
191	3.183333333333333	0.240202604494482	0.4265357171390986	0.7358061310063913	0.29530506851497096	0.4586656735100586	1.133535987134332	0.2829425685281863	0.5664581024443348	1.528224955233978	0.27334303879851146	0.353188209356169	1.5115501383695238	0.3273060858094134	0.41666314722191816	1.534599675552774	0.2651593132347965	0.6031283124901289	1.5891671688870381	0.04835284279508378	0.4424860354232559	0.7614238858211314	0.05694104699598481	0.447887326071319	1.143328485056782	0.08291598348476524	0.5203995808958222	1.5239759161923978	0.08532839788850391	0.3798991752244952	1.5425014397119132	0.03959750503733352	0.372675356237465	1.5087840996617292	0.09682472105607882	0.6080223144062331	1.5931724784582033	0.10022860736864171	0.42863708704550535	0.218146624114841	0.12635085649481	0.32963004341477425	-0.0392502944811418	0.12132756904253944	0.259162718334165	0.09768286514782185	0.25076413628694344	0.3874835521933388	0.2665213358567788	0.33639291158909523	0.4223563270344388	0.49108807395387827	0.23865563141168802	0.20081395878724417	0.5867525260099569	0.1632783031119593	0.10679715616140487	0.6404718672145269	0.15922550762949803	0.08703118048050504	0.6510055103210184	0.17772780165780516	0.111199972724144	0.6682836858079657	-0.024904754367360015	0.4487119583892936	0.28519004159279526	-0.07465945547758837	0.4202863889134853	0.524388327502204	0.03913750417422436	0.23802166605406896	0.638347852627886	0.1284207774430841	0.20724137427541162	0.6738145513786152	0.12332308571346756	0.18486527369870498	0.7006918996332995	0.09607942042767831	0.19401736847185239	0.7295476806517955
192	3.2	0.24535630573311407	0.43079621747802116	0.7409577391340223	0.29649887800007424	0.459224700334862	1.1479035489167844	0.28214303482891684	0.5681453231618069	1.524544867423	0.27406183737018264	0.3530296681692797	1.5070065889981736	0.33168229838915725	0.4199042195163257	1.5359426062717445	0.25892514125147886	0.5969697897721394	1.5814687153486726	0.05179892718012404	0.4445610523979428	0.7667224535512273	0.0560783082733852	0.44919852062052706	1.1398058065994339	0.0797104310965231	0.5060369000432444	1.5163205361065624	0.08611869573949568	0.37959612800835024	1.5380465933713732	0.03962971058212626	0.3726963056733004	1.5085268121587354	0.10297972608039653	0.589254982548343	1.5863537536692098	0.10018588103769145	0.42868112416348186	0.21816767638179663	0.1263113414728645	0.3296550502074597	-0.03930574918539122	0.12401312147743171	0.2696751520215109	0.09876069410629491	0.2507195258132131	0.3873841550778592	0.2666303280789299	0.3297820845963635	0.39462387442538965	0.4966957101413256	0.22051724267578532	0.19475398101145577	0.6065301383785814	0.13343784339200174	0.16294730069722743	0.667331911885852	0.1312345081116783	0.14892712259375296	0.7024532191015188	0.15641073365091043	0.1484166033101544	0.715882382920959	-0.025184225206157936	0.44837131332062946	0.2891581585465181	-0.07348721141806502	0.42055713862020616	0.5329962389455432	0.04721898906486896	0.25074299911709463	0.6504521757123607	0.13343111229733473	0.2130897116531815	0.6841437101705755	0.13406868627951718	0.20201756272408253	0.7187633741333904	0.11402489859603618	0.21283397554974812	0.74772693626063
193	3.216666666666667	0.2522481995475803	0.43596836869675115	0.7347796803982951	0.292569563364743	0.47796886220446105	1.1548264588703478	0.282127406906686	0.5679967293211547	1.5245851015900538	0.2731439297238813	0.35340068845446687	1.5117220876043793	0.32804477023560596	0.4088081549392129	1.5298166981737735	0.26019240930495874	0.5981154968209624	1.5864511092545461	0.05948515688082921	0.45086640665039146	0.7690690580304935	0.05611744940466913	0.4495536789896883	1.1400980735334139	0.08000033973320837	0.5072003028831553	1.5080076771490387	0.0808947725118708	0.3928364041453778	1.5469254531661543	0.0393647244852422	0.3734356927460733	1.508930115959593	0.10327429173096654	0.5903237648022417	1.5768947517023129	0.1002449234334553	0.42883532690455456	0.21808716794561847	0.1262698076867419	0.33006831027748357	-0.03920620201549865	0.12389363826090294	0.2695183779948927	0.09859510517189822	0.250679798182226	0.38765922201288877	0.2630408177186073	0.3214171464563995	0.3808336116297323	0.4981157803627909	0.21464311790727175	0.1911461874120081	0.6264079460758423	0.1145959450758408	0.19753695071930177	0.6910306969842679	0.11471914371593346	0.16723745793932868	0.7226109221454815	0.1503190065238256	0.20881731327489395	0.7577669374287173	-0.024802733750891346	0.4486032833381621	0.2854300634628087	-0.06082074437967969	0.410375545006703	0.520541987779552	0.04721355994060726	0.2511913213942181	0.6473086560998081	0.13328110562734571	0.2218709884691468	0.6917102908386071	0.1366997201594027	0.22078156319895081	0.7248900150580827	0.12796595876918299	0.2101208033732554	0.7405729217563735
194	3.2333333333333334	0.2531718326410142	0.43766754033258737	0.7398653343781725	0.2938336843040793	0.4798809595229726	1.1599572590493346	0.2827871827528553	0.5664398820330859	1.5282634263277364	0.2739048260460954	0.3532543709136502	1.5070712489033085	0.32791737051161	0.4087657081371622	1.529733116602214	0.2604197573452111	0.5992776382555705	1.5871148204885686	0.059065386629246104	0.44989866389210453	0.7739861311086196	0.05608330842820986	0.4493055391080423	1.1397219346793357	0.089378502460902	0.5048844069568241	1.5095555486421062	0.08602115609589736	0.3797211197324066	1.5381355471320375	0.04030901600014819	0.37287996775464777	1.5042013060741848	0.10327163261422019	0.5900011328520303	1.5766056296806816	0.10020284731578488	0.42885617867192793	0.21810169308691377	0.12208344431113004	0.3418071501892344	-0.03816743398535907	0.11966069156329315	0.28102704515661386	0.10028054098935368	0.25054166034259884	0.3876925427644501	0.26311753370810825	0.3168896577173188	0.368463857897463	0.499224957910256	0.1992739343492576	0.2166710358592582	0.6397465018172703	0.10003705746747062	0.2561715913847324	0.7149929128896839	0.09300200305520612	0.22830696244891557	0.7386841770873102	0.1469858858912253	0.22213340589360722	0.7740260181872831	-0.02413895708009128	0.44892157492710394	0.29713652238066146	-0.042346751252679116	0.3995648213052038	0.5204211583619444	0.060571491060692755	0.2539912430920199	0.6580941026518713	0.13766956691664514	0.22609965598733947	0.7020047852425082	0.13812072131055364	0.22198789778845965	0.732165438697191	0.13381661120103033	0.22397380361712577	0.7641317424353025
